<svg xmlns="http://www.w3.org/2000/svg" width="1890" height="1417" viewBox="0 0 1890 1417">
  <defs>
    <style>
      .cls-1 {
        fill: #e4e4e4;
        stroke: #1f1c1c;
        stroke-width: 1px;
        fill-rule: evenodd;
        opacity: 0.75;
      }
    </style>
  </defs>
  <path id="Fond_1" data-name="Fond 1" class="cls-1" d="M660,526c3.96-19-44.964-35.688-42-58,5.51-41.481,179.125-55.251,327-54,169.72,1.435,358.81,21.368,359,47,0.12,16.5-79.23,27.822-78,35,1.4,8.145,147.17-.9,227,2,50.62,1.837,159.4,9.914,162,34,2.36,21.874-84.78,41.437-82,65,1.69,14.31,35.39,20.42,65,28,60.08,15.382,135.73,46.422,134,69-2.73,35.627-198.28,40.386-200,75-0.49,9.881,22.37,23.024,56,43,35.68,21.2,52.29,38.923,51,51-2.26,21.226-44.02,35.024-83,43-81.19,16.613-169.06-2.882-171,4-1.63,5.767,54.55,20.023,55,40,0.56,24.861-81.97,51.19-122,55-86.99,8.29-210.16,20.03-235,18-91.813-7.49-218.19-7.28-331-3-86.2,3.27-201.931,11.01-208-15-4-17.156,43.632-39.665,39-52-9.926-26.432-240.465,45.148-268-8-10.617-20.493,17.026-46.9,4-68-18.252-29.562-96.709-10.137-101-24-5.131-16.577,102.7-57.6,98-91-3.725-26.459-76.562-32.993-77-53-0.517-23.624,100.505-36.719,102.711-68,1.9-26.9-68.485-46.216-65.711-63C282.241,540.244,649.43,576.709,660,526Z"/>
</svg>
